<svg width="180" height="180" viewBox="0 0 180 180" fill="none" xmlns="http://www.w3.org/2000/svg">
<path opacity="0.1" d="M90 179.998C139.706 179.998 180 177.581 180 174.598C180 171.616 139.706 169.198 90 169.198C40.2944 169.198 0 171.616 0 174.598C0 177.581 40.2944 179.998 90 179.998Z" fill="#2B2A7F"/>
<path fill-rule="evenodd" clip-rule="evenodd" d="M53.9974 34.2018C53.9974 31.2194 56.4151 28.8018 59.3974 28.8018C62.3798 28.8018 64.7974 31.2194 64.7974 34.2018V37.8018H115.197V34.2018C115.197 31.2194 117.615 28.8018 120.597 28.8018C123.58 28.8018 125.997 31.2194 125.997 34.2018V37.8018H136.797C144.75 37.8018 151.197 44.2489 151.197 52.2018V102.857C163.41 104.604 172.797 115.106 172.797 127.802C172.797 141.719 161.515 153.002 147.597 153.002C138.27 153.002 130.126 147.934 125.769 140.402H41.3974C34.4386 140.402 28.7974 134.761 28.7974 127.802V52.2018C28.7974 44.2489 35.2445 37.8018 43.1974 37.8018H53.9974V34.2018ZM124.052 136.802C122.983 134.007 122.397 130.973 122.397 127.802C122.397 113.884 133.68 102.602 147.597 102.602V61.2018H32.3974V127.802C32.3974 132.772 36.4269 136.802 41.3974 136.802H124.052ZM51.2974 73.8018C48.3151 73.8018 45.8974 76.2194 45.8974 79.2018V84.6018C45.8974 87.5841 48.3151 90.0018 51.2974 90.0018H56.6974C59.6798 90.0018 62.0974 87.5841 62.0974 84.6018V79.2018C62.0974 76.2194 59.6798 73.8018 56.6974 73.8018H51.2974ZM49.4974 79.2018C49.4974 78.2076 50.3033 77.4018 51.2974 77.4018H56.6974C57.6915 77.4018 58.4974 78.2076 58.4974 79.2018V84.6018C58.4974 85.5959 57.6915 86.4018 56.6974 86.4018H51.2974C50.3033 86.4018 49.4974 85.5959 49.4974 84.6018V79.2018ZM94.4974 79.2018C94.4974 76.2194 96.9151 73.8018 99.8974 73.8018H105.297C108.28 73.8018 110.697 76.2194 110.697 79.2018V84.6018C110.697 87.5841 108.28 90.0018 105.297 90.0018H99.8974C96.9151 90.0018 94.4974 87.5841 94.4974 84.6018V79.2018ZM99.8974 77.4018C98.9033 77.4018 98.0974 78.2076 98.0974 79.2018V84.6018C98.0974 85.5959 98.9033 86.4018 99.8974 86.4018H105.297C106.292 86.4018 107.097 85.5959 107.097 84.6018V79.2018C107.097 78.2076 106.292 77.4018 105.297 77.4018H99.8974ZM123.297 73.8018C120.315 73.8018 117.897 76.2194 117.897 79.2018V84.6018C117.897 87.5841 120.315 90.0018 123.297 90.0018H128.697C131.68 90.0018 134.097 87.5841 134.097 84.6018V79.2018C134.097 76.2194 131.68 73.8018 128.697 73.8018H123.297ZM121.497 79.2018C121.497 78.2076 122.303 77.4018 123.297 77.4018H128.697C129.692 77.4018 130.497 78.2076 130.497 79.2018V84.6018C130.497 85.5959 129.692 86.4018 128.697 86.4018H123.297C122.303 86.4018 121.497 85.5959 121.497 84.6018V79.2018ZM99.8974 100.802C96.9151 100.802 94.4974 103.219 94.4974 106.202V111.602C94.4974 114.584 96.9151 117.002 99.8974 117.002H105.297C108.28 117.002 110.697 114.584 110.697 111.602V106.202C110.697 103.219 108.28 100.802 105.297 100.802H99.8974ZM74.6974 73.8018C71.7151 73.8018 69.2974 76.2194 69.2974 79.2018V84.6018C69.2974 87.5841 71.7151 90.0018 74.6974 90.0018H80.0974C83.0798 90.0018 85.4974 87.5841 85.4974 84.6018V79.2018C85.4974 76.2194 83.0798 73.8018 80.0974 73.8018H74.6974ZM69.2974 106.202C69.2974 103.219 71.7151 100.802 74.6974 100.802H80.0974C83.0798 100.802 85.4974 103.219 85.4974 106.202V111.602C85.4974 114.584 83.0798 117.002 80.0974 117.002H74.6974C71.7151 117.002 69.2974 114.584 69.2974 111.602V106.202ZM74.6974 104.402C73.7033 104.402 72.8974 105.208 72.8974 106.202V111.602C72.8974 112.596 73.7033 113.402 74.6974 113.402H80.0974C81.0915 113.402 81.8974 112.596 81.8974 111.602V106.202C81.8974 105.208 81.0915 104.402 80.0974 104.402H74.6974ZM125.997 127.802C125.997 115.872 135.668 106.202 147.597 106.202C159.527 106.202 169.197 115.872 169.197 127.802C169.197 139.731 159.527 149.402 147.597 149.402C135.668 149.402 125.997 139.731 125.997 127.802ZM143.097 116.102C143.097 113.616 145.112 111.602 147.597 111.602C150.083 111.602 152.097 113.616 152.097 116.102V126.902C152.097 129.387 150.083 131.402 147.597 131.402C145.112 131.402 143.097 129.387 143.097 126.902V116.102ZM147.597 115.202C147.1 115.202 146.697 115.605 146.697 116.102V126.902C146.697 127.399 147.1 127.802 147.597 127.802C148.094 127.802 148.497 127.399 148.497 126.902V116.102C148.497 115.605 148.094 115.202 147.597 115.202ZM147.597 144.002C145.112 144.002 143.097 141.987 143.097 139.502C143.097 137.016 145.112 135.002 147.597 135.002C150.083 135.002 152.097 137.016 152.097 139.502C152.097 141.987 150.083 144.002 147.597 144.002ZM146.697 139.502C146.697 139.999 147.1 140.402 147.597 140.402C148.094 140.402 148.497 139.999 148.497 139.502C148.497 139.005 148.094 138.602 147.597 138.602C147.1 138.602 146.697 139.005 146.697 139.502ZM21.6962 144.487C24.3153 144.487 26.4384 142.364 26.4384 139.745C26.4384 137.126 24.3153 135.002 21.6962 135.002H11.9405C9.32142 135.002 7.19824 137.126 7.19824 139.745C7.19824 142.364 9.32142 144.487 11.9405 144.487H21.6962ZM22.8384 139.745C22.8384 140.376 22.327 140.887 21.6962 140.887H11.9405C11.3096 140.887 10.7982 140.376 10.7982 139.745C10.7982 139.114 11.3096 138.602 11.9405 138.602H21.6962C22.327 138.602 22.8384 139.114 22.8384 139.745ZM32.0163 164.036C34.6354 164.036 36.7586 161.912 36.7586 159.293V149.538C36.7586 146.919 34.6354 144.795 32.0163 144.795C29.3972 144.795 27.274 146.919 27.274 149.538V159.293C27.274 161.912 29.3972 164.036 32.0163 164.036ZM33.1586 159.293C33.1586 159.924 32.6471 160.436 32.0163 160.436C31.3854 160.436 30.874 159.924 30.874 159.293V149.538C30.874 148.907 31.3854 148.395 32.0163 148.395C32.6471 148.395 33.1586 148.907 33.1586 149.538V159.293Z" fill="#252526"/>
</svg>
